<svg width="27" height="27" viewBox="0 0 27 27" fill="none" xmlns="http://www.w3.org/2000/svg">
<path d="M13.5 1C11.0277 1 8.61099 1.73311 6.55538 3.10663C4.49976 4.48015 2.89761 6.43238 1.95151 8.71646C1.00542 11.0005 0.757874 13.5139 1.24019 15.9386C1.7225 18.3634 2.91301 20.5907 4.66117 22.3388C6.40933 24.087 8.63661 25.2775 11.0614 25.7598C13.4861 26.2421 15.9995 25.9946 18.2835 25.0485C20.5676 24.1024 22.5199 22.5002 23.8934 20.4446C25.2669 18.389 26 15.9723 26 13.5C26 10.1848 24.683 7.00537 22.3388 4.66116C19.9946 2.31696 16.8152 1 13.5 1ZM13.5 4.125C15.2945 4.12555 17.0512 4.64115 18.5614 5.61054C20.0716 6.57994 21.2718 7.9624 22.0195 9.59375C19.75 8.53515 16.5586 8.03125 13.5 8.03125C10.4414 8.03125 7.25 8.53515 4.98047 9.59375C5.7282 7.9624 6.92842 6.57994 8.43861 5.61054C9.94879 4.64115 11.7055 4.12555 13.5 4.125ZM22.0938 13.5C21.9883 14.1797 18.8516 15.8437 13.5 15.8437C8.14844 15.8437 5.01954 14.1836 4.90625 13.5C5.01954 12.8164 8.15625 11.1562 13.5 11.1562C18.8438 11.1562 21.9922 12.8203 22.0938 13.5ZM13.5 22.875C11.7055 22.8744 9.94879 22.3588 8.43861 21.3895C6.92842 20.4201 5.7282 19.0376 4.98047 17.4062C7.25782 18.4648 10.4492 18.9687 13.5 18.9687C16.5508 18.9687 19.75 18.4648 22.0195 17.4062C21.2718 19.0376 20.0716 20.4201 18.5614 21.3895C17.0512 22.3588 15.2945 22.8744 13.5 22.875Z" fill="#FE5963" stroke="#FE5963" stroke-width="0.4"/>
</svg>
