<svg width="24" height="27" viewBox="0 0 24 27" fill="none" xmlns="http://www.w3.org/2000/svg">
<path d="M21.4757 6.13269L13.6186 1.44512C13.1302 1.15385 12.5714 1 12.002 1C11.4325 1 10.8737 1.15385 10.3854 1.44512L2.52821 6.13269C2.06239 6.41005 1.67678 6.80268 1.40896 7.27231C1.14114 7.74194 1.00024 8.27255 1 8.81242V18.1876C0.999832 18.7271 1.14013 19.2574 1.40725 19.727C1.67436 20.1966 2.05919 20.5895 2.52429 20.8673L10.3814 25.5549C10.8698 25.8461 11.4286 26 11.998 26C12.5675 26 13.1263 25.8461 13.6146 25.5549L21.4718 20.8673C21.9376 20.5899 22.3232 20.1973 22.591 19.7277C22.8589 19.2581 22.9998 18.7275 23 18.1876V8.81242C23.0002 8.27292 22.8599 7.74256 22.5928 7.27297C22.3256 6.80337 21.9408 6.41054 21.4757 6.13269ZM12 4.12485L18.3289 7.90225L12 11.6758L5.67107 7.90225L12 4.12485ZM4.14286 18.1876V10.6328L10.4286 14.3828V21.9376L4.14286 18.1876ZM13.5714 21.9376V14.3828L19.8571 10.6328V18.1876L13.5714 21.9376Z" fill="#F4F5F7" stroke="#3D82FF" stroke-width="0.5"/>
</svg>
