<svg width="25" height="25" viewBox="0 0 25 25" fill="none" xmlns="http://www.w3.org/2000/svg">
<path d="M12.5011 3.73837e-05C9.74937 -0.000204509 7.07446 0.907557 4.89125 2.58253C2.70803 4.2575 1.13852 6.60607 0.426145 9.26398C-0.286229 11.9219 -0.101652 14.7406 0.951247 17.2829C2.00415 19.8252 3.86652 21.9491 6.24952 23.325C8.63252 24.701 11.403 25.2522 14.1312 24.8931C16.8594 24.534 19.3928 23.2847 21.3386 21.339C23.2844 19.3933 24.5338 16.8599 24.893 14.1317C25.2522 11.4035 24.7012 8.63308 23.3253 6.25002C22.2326 4.3462 20.6557 2.76528 18.7547 1.66763C16.8537 0.569976 14.6962 -0.00534224 12.5011 3.73837e-05ZM21.5558 14.9258C21.4816 15.1953 21.3956 15.4609 21.3019 15.707L15.6495 12.4609L21.2784 9.21096C21.9688 11.0395 22.0658 13.039 21.5558 14.9258ZM3.70423 15.7461C3.02818 13.9289 2.93668 11.9459 3.44251 10.0742C3.52324 9.77215 3.61829 9.47658 3.72766 9.18752L9.39953 12.4609L3.70423 15.7461ZM19.7198 6.50784L14.087 9.76564V3.26566C16.2845 3.64892 18.2749 4.79913 19.7042 6.51174L19.7198 6.50784ZM7.8136 4.38284C8.78737 3.82261 9.85373 3.44158 10.962 3.25784V9.76564L5.3136 6.49221C6.01688 5.64802 6.86309 4.93403 7.8136 4.38284ZM5.26672 18.4453L10.962 15.1563V21.7422C8.73016 21.3655 6.70846 20.198 5.26672 18.4531V18.4453ZM17.1886 20.6172C16.2286 21.1694 15.1786 21.5476 14.087 21.7344V15.168L19.7511 18.4375C19.0353 19.3126 18.1672 20.0511 17.1886 20.6172Z" fill="#4B5E69"/>
</svg>
