<svg width="34" height="38" viewBox="0 0 34 38" fill="none" xmlns="http://www.w3.org/2000/svg">
<path fill-rule="evenodd" clip-rule="evenodd" d="M33.2242 28.4555C32.8503 29.1119 32.3119 29.661 31.6611 30.049L19.436 37.3526C18.7537 37.76 17.973 37.9754 17.1771 37.9754C16.3813 37.9754 15.6005 37.76 14.9182 37.3526L2.69348 30.0492C2.04388 29.6606 1.50664 29.1112 1.13382 28.4549C0.760958 27.7985 0.565196 27.0572 0.56543 26.3033V11.6965C0.565787 10.9422 0.762379 10.2008 1.1362 9.54444C1.51006 8.88798 2.04886 8.33867 2.69959 7.95067L14.9244 0.647274C15.6066 0.239844 16.3874 0.0245361 17.1832 0.0245361C17.9791 0.0245361 18.7599 0.23988 19.4421 0.64731L31.6669 7.95067C32.3165 8.33934 32.8537 8.88865 33.2266 9.54498C33.5994 10.2014 33.7952 10.9427 33.7949 11.6965V26.3033C33.7946 27.0576 33.598 27.7991 33.2242 28.4555ZM6.19973 27.6292L17.1802 34.1892L28.1606 27.6292H6.19973ZM9.93198 23.7603H24.4544L17.1793 10.4777L9.93198 23.7603ZM29.905 23.668V11.4128L18.3339 4.49997L28.9665 23.9083L29.905 23.668ZM5.39387 23.9083L16.0265 4.49997L4.45536 11.4128V23.668L5.39387 23.9083Z" fill="#32D199"/>
</svg>
