<svg width="95" height="43" viewBox="0 0 95 43" fill="none" xmlns="http://www.w3.org/2000/svg">
<path d="M85.7 11.8C81.5 11.8 77.9 14.7 76.8 18.6H68.4C67.2 8.2 58.3 0 47.5 0C36.7 0 27.8 8.1 26.6 18.6H18.2C17.1 14.7 13.6 11.8 9.3 11.8C4.2 11.8 0 16 0 21.1C0 26.2 4.2 30.4 9.3 30.4C13.5 30.4 17.1 27.5 18.2 23.6H26.6C27.8 34 36.7 42.2 47.5 42.2C58.3 42.2 67.2 34.1 68.4 23.6H76.8C77.9 27.5 81.4 30.4 85.7 30.4C90.8 30.4 95 26.2 95 21.1C95 16 90.8 11.8 85.7 11.8ZM9.3 25.4C6.9 25.4 5 23.5 5 21.1C5 18.7 6.9 16.8 9.3 16.8C11.7 16.8 13.6 18.7 13.6 21.1C13.6 23.5 11.6 25.4 9.3 25.4ZM56 26.1C57 27.1 57 28.6 56 29.6C55.5 30.1 54.9 30.3 54.3 30.3C53.7 30.3 53 30.1 52.6 29.6L47.6 24.6L42.6 29.6C42.1 30.1 41.5 30.3 40.9 30.3C40.3 30.3 39.6 30.1 39.2 29.6C38.2 28.6 38.2 27.1 39.2 26.1L44.2 21.1L39.2 16.1C38.2 15.1 38.2 13.6 39.2 12.6C40.2 11.6 41.7 11.6 42.7 12.6L47.7 17.6L52.7 12.6C53.7 11.6 55.2 11.6 56.2 12.6C57.2 13.6 57.2 15.1 56.2 16.1L51.2 21.1L56 26.1ZM85.7 25.4C83.3 25.4 81.4 23.5 81.4 21.1C81.4 18.7 83.3 16.8 85.7 16.8C88.1 16.8 90 18.7 90 21.1C90 23.5 88.1 25.4 85.7 25.4Z" fill="#BDC8CE"/>
</svg>
